<?xml version="1.0" encoding="UTF-8"?>
<svg version="1.1" xmlns="http://www.w3.org/2000/svg" width="1024" height="1024">
<path d="M0 0 C21.12 0 42.24 0 64 0 C64 0.33 64 0.66 64 1 C64.86761963 1.08975098 65.73523926 1.17950195 66.62915039 1.27197266 C92.41276035 3.99066989 117.87865748 7.6556874 142.94091797 14.52709961 C147.06821994 15.64020928 150.7227883 16.22973965 155 16 C155.33 16.66 155.66 17.32 156 18 C157.75725351 18.82300246 157.75725351 18.82300246 159.89453125 19.47265625 C160.68537109 19.73240234 161.47621094 19.99214844 162.29101562 20.25976562 C163.12310547 20.52466797 163.95519531 20.78957031 164.8125 21.0625 C165.63298828 21.33126953 166.45347656 21.60003906 167.29882812 21.87695312 C171.63046049 23.29702222 171.63046049 23.29702222 176.02807617 24.48803711 C178.06319121 25.01640609 179.90653484 25.71588481 181.84375 26.53125 C182.58455811 26.84223633 183.32536621 27.15322266 184.08862305 27.47363281 C184.88437744 27.81233398 185.68013184 28.15103516 186.5 28.5 C187.34022705 28.85674805 188.1804541 29.21349609 189.04614258 29.58105469 C219.97847375 42.77992146 250.35461646 57.3840504 278.03759766 76.63818359 C280.2807326 78.19481543 282.53707984 79.73144534 284.79296875 81.26953125 C295.00281293 88.2756742 304.78438595 95.62110709 314.27929688 103.56738281 C316.76594524 105.6377081 319.29216287 107.65841502 321.8125 109.6875 C326.63843902 113.62868353 331.22363266 117.79040741 335.78515625 122.03125 C337.83679121 124.02671788 337.83679121 124.02671788 340 125 C340 125.66 340 126.32 340 127 C340.79821167 127.31142944 340.79821167 127.31142944 341.61254883 127.62915039 C344.96569479 129.5544919 347.4956177 132.2105717 350.19921875 134.93359375 C350.79370316 135.5261647 351.38818756 136.11873566 352.00068665 136.72926331 C353.25967359 137.98689024 354.51614228 139.2470425 355.77026367 140.50952148 C357.65658363 142.40641041 359.55314398 144.29256944 361.45117188 146.17773438 C368.43082282 153.1497458 374.87195135 160.26207455 381 168 C381.98288371 169.15253088 382.97385905 170.29826401 383.9765625 171.43359375 C401.95475305 191.79311188 417.51985202 214.4382625 431 238 C431.60255615 239.0528418 431.60255615 239.0528418 432.21728516 240.12695312 C438.16669345 250.57670139 443.81996985 261.14751412 449 272 C449.38655762 272.80888672 449.77311523 273.61777344 450.17138672 274.45117188 C488.70250523 355.70124169 502.25821636 448.12949122 467.3125 620.875 C454.7778631 655.86518048 437.62292222 689.12042843 417 720 C416.48147461 720.77907715 415.96294922 721.5581543 415.42871094 722.36083984 C405.93331323 736.5810972 395.73011923 749.92720278 384.6171875 762.91015625 C382.18099681 765.76542868 379.83967203 768.69000217 377.5 771.625 C373.409085 776.67021524 368.94606571 781.17736539 364.28515625 785.6875 C361.87817981 787.9765926 361.87817981 787.9765926 360 791 C359.34 791 358.68 791 358 791 C357.731875 791.639375 357.46375 792.27875 357.1875 792.9375 C356 795 356 795 353 796 C352.67 796.99 352.34 797.98 352 799 C350.3984375 800.578125 350.3984375 800.578125 348.375 802.25 C345.681942 804.52837474 343.13071089 806.83122111 340.6875 809.375 C337.03532376 813.08488557 333.05157538 816.30490824 328.99609375 819.5625 C326.4581049 821.62730449 323.97762456 823.74236553 321.50976562 825.88989258 C298.6759201 845.64258721 272.33418945 862.24756751 245.78662109 876.49951172 C243.26872016 877.85530453 240.76735413 879.23659831 238.26953125 880.62890625 C216.29926098 892.72573227 192.71984061 901.98023278 169 910 C168.20754883 910.27360352 167.41509766 910.54720703 166.59863281 910.82910156 C155.72562035 914.56684726 144.64447985 917.45171115 133.5 920.25 C132.81300018 920.42298615 132.12600037 920.59597229 131.41818237 920.77420044 C108.87142038 926.42548218 108.87142038 926.42548218 101 926 C100.67 926.66 100.34 927.32 100 928 C97.74536133 928.36132812 97.74536133 928.36132812 94.76953125 928.53125 C90.35275359 928.82835143 85.9708846 929.20141676 81.57421875 929.71875 C55.69701059 932.68795762 30.04903573 933.34896048 4.04443359 932.31933594 C2.95880379 932.27839813 2.95880379 932.27839813 1.85124207 932.2366333 C-0.11670976 932.16092682 -2.08437126 932.07777847 -4.05200195 931.99414062 C-6.93321479 931.78100949 -6.93321479 931.78100949 -9 933 C-9 932.01 -9 931.02 -9 930 C-9.59280762 930.01812744 -10.18561523 930.03625488 -10.79638672 930.05493164 C-18.35485499 930.18367721 -25.51963851 929.18183284 -32.96484375 927.97851562 C-37.32604465 927.3228106 -41.12114319 926.86382401 -45.4921875 927.59765625 C-46.64976562 927.73042969 -47.80734375 927.86320313 -49 928 C-49.4547168 927.54206055 -49.90943359 927.08412109 -50.37792969 926.61230469 C-52.58246823 924.42103851 -54.43028824 924.21503065 -57.4609375 923.60546875 C-59.11065552 923.26092651 -59.11065552 923.26092651 -60.79370117 922.90942383 C-62.56644409 922.55207153 -62.56644409 922.55207153 -64.375 922.1875 C-102.24779119 914.11624942 -139.74660667 901.15261902 -174 883 C-175.41418213 882.25991699 -175.41418213 882.25991699 -176.85693359 881.50488281 C-208.8264555 864.75069597 -238.36922203 845.24305786 -266 822 C-266.53157715 821.55333984 -267.0631543 821.10667969 -267.61083984 820.64648438 C-280.04091242 810.17532606 -291.85976181 799.22118281 -303.375 787.75 C-304.21949707 786.91017578 -305.06399414 786.07035156 -305.93408203 785.20507812 C-320 771.10292934 -320 771.10292934 -320 768 C-320.66 768 -321.32 768 -322 768 C-323.87001078 765.80644768 -325.63431966 763.60515924 -327.375 761.3125 C-328.34101287 760.05849131 -329.30715651 758.80458335 -330.2734375 757.55078125 C-331.18244379 756.36730433 -332.09130759 755.18371794 -333 754 C-335.55061969 750.45070309 -335.55061969 750.45070309 -339 748 C-340.02566373 746.34900282 -341.02079677 744.67896957 -342 743 C-343.33409951 741.08999218 -344.68897596 739.19435629 -346.0625 737.3125 C-346.75472656 736.35988281 -347.44695312 735.40726563 -348.16015625 734.42578125 C-349.92606415 731.98321267 -349.92606415 731.98321267 -352 730 C-352.98580641 728.53899948 -353.9385852 727.05563902 -354.875 725.5625 C-355.49503906 724.57507813 -356.11507812 723.58765625 -356.75390625 722.5703125 C-357.10598145 722.00860352 -357.45805664 721.44689453 -357.82080078 720.86816406 C-359.12777671 718.79756782 -360.45179982 716.73844401 -361.77734375 714.6796875 C-366.9906491 706.55291447 -372.04448148 698.370534 -376.75 689.9375 C-377.18030518 689.16978271 -377.61061035 688.40206543 -378.05395508 687.61108398 C-381 682.25458328 -381 682.25458328 -381 680 C-381.66 679.67 -382.32 679.34 -383 679 C-383.91040039 677.4597168 -383.91040039 677.4597168 -384.84765625 675.44921875 C-385.20085937 674.69874268 -385.5540625 673.9482666 -385.91796875 673.17504883 C-386.48451172 671.94371216 -386.48451172 671.94371216 -387.0625 670.6875 C-387.45953125 669.83373779 -387.8565625 668.97997559 -388.265625 668.1003418 C-389.10105478 666.29853454 -389.93317551 664.4951898 -390.76220703 662.69042969 C-391.92352467 660.16622449 -393.09917353 657.64918303 -394.27734375 655.1328125 C-404.17589631 633.79231465 -413.50385193 610.91498402 -419 588 C-419.37318359 586.55947266 -419.37318359 586.55947266 -419.75390625 585.08984375 C-420.02074219 584.04957031 -420.28757812 583.00929688 -420.5625 581.9375 C-420.83191406 580.89464844 -421.10132813 579.85179687 -421.37890625 578.77734375 C-422 576 -422 576 -422 573 C-422.99 573 -423.98 573 -425 573 C-425.33 571.35 -425.66 569.7 -426 568 C-425.34 568 -424.68 568 -424 568 C-424.11362262 566.5199159 -424.24122908 565.04089926 -424.375 563.5625 C-424.44460938 562.73878906 -424.51421875 561.91507813 -424.5859375 561.06640625 C-424.79089844 560.04353516 -424.79089844 560.04353516 -425 559 C-425.66 558.67 -426.32 558.34 -427 558 C-427.34594727 556.14550781 -427.34594727 556.14550781 -427.50390625 553.703125 C-427.99483379 547.65730399 -428.94661837 541.73146336 -429.9375 535.75 C-431.38941844 526.84485646 -432.78441642 517.9409371 -434 509 C-434.33 509 -434.66 509 -435 509 C-435 486.23 -435 463.46 -435 440 C-434.67 440 -434.34 440 -434 440 C-433.80538512 437.06281233 -433.61902407 434.12550068 -433.4375 431.1875 C-433.38142578 430.35412109 -433.32535156 429.52074219 -433.26757812 428.66210938 C-433.21923828 427.85966797 -433.17089844 427.05722656 -433.12109375 426.23046875 C-433.05039673 425.12288208 -433.05039673 425.12288208 -432.97827148 423.99291992 C-432.90070362 421.78811208 -432.90070362 421.78811208 -434 419 C-433.01 419 -432.02 419 -431 419 C-430.95319092 418.15034668 -430.90638184 417.30069336 -430.8581543 416.42529297 C-430.32633115 407.87976867 -429.29842459 399.55412898 -427.8125 391.125 C-427.59762939 389.88210205 -427.38275879 388.6392041 -427.16137695 387.35864258 C-425.49609758 378.04198334 -423.39957296 368.88658121 -420.88012695 359.76416016 C-419.40832456 354.31486618 -418.71529038 349.64784433 -419 344 C-418.34 344 -417.68 344 -417 344 C-416.68885254 343.03513672 -416.37770508 342.07027344 -416.05712891 341.07617188 C-408.19572809 316.77171785 -399.63883276 293.19610033 -388.49609375 270.16796875 C-386.95958381 267.07737313 -386.95958381 267.07737313 -386 264 C-385.21493 262.62974867 -384.39714374 261.27813173 -383.5625 259.9375 C-381.1127902 255.92464204 -378.81025896 251.85570063 -376.5625 247.72827148 C-369.03864752 233.93993012 -360.48146482 220.92335949 -351.43969727 208.08740234 C-349.56602404 205.4067733 -348.04045739 203.12137218 -347 200 C-345.34758976 198.31919783 -343.67864799 196.65459859 -342 195 C-340.4270945 193.02447364 -338.8868939 191.02260054 -337.375 189 C-333.38832586 183.72282861 -329.22520179 178.64026066 -324.91577148 173.62426758 C-321.55705794 169.70285655 -318.39517924 165.67265241 -315.33984375 161.51171875 C-314.89769531 161.01285156 -314.45554687 160.51398438 -314 160 C-313.34 160 -312.68 160 -312 160 C-311.76152344 159.4328125 -311.52304687 158.865625 -311.27734375 158.28125 C-309.73031477 155.51836033 -307.84581785 153.68958559 -305.5625 151.5 C-303.28800867 149.31169203 -301.19811229 147.27222959 -299.33984375 144.71875 C-298.89769531 144.1515625 -298.45554687 143.584375 -298 143 C-297.34 143 -296.68 143 -296 143 C-296 142.34 -296 141.68 -296 141 C-295.34 141 -294.68 141 -294 141 C-293.773125 140.443125 -293.54625 139.88625 -293.3125 139.3125 C-290.6459394 134.61427418 -286.31750822 131.40402702 -282.24609375 127.94921875 C-279.14566102 125.25858235 -276.09799342 122.51352961 -273.0625 119.75 C-272.47017578 119.21818115 -271.87785156 118.6863623 -271.26757812 118.13842773 C-269.80612673 116.8002596 -268.39800937 115.40431618 -267 114 C-267 113.34 -267 112.68 -267 112 C-266.41734375 111.90332031 -265.8346875 111.80664062 -265.234375 111.70703125 C-262.51821073 110.8475457 -261.29622953 109.66415773 -259.25 107.6875 C-253.20784674 102.14060521 -246.63706966 97.36398363 -240.0390625 92.50830078 C-238.15074577 91.11150711 -236.27648706 89.69820441 -234.40625 88.27734375 C-210.08663657 69.91590035 -182.89274887 54.27119487 -155 42 C-155 41.34 -155 40.68 -155 40 C-154.11924805 39.87866699 -153.23849609 39.75733398 -152.33105469 39.63232422 C-149.16536656 39.03139104 -146.64548151 38.16720855 -143.703125 36.8828125 C-142.16640137 36.22744507 -142.16640137 36.22744507 -140.59863281 35.55883789 C-138.94105957 34.84908813 -138.94105957 34.84908813 -137.25 34.125 C-126.40268027 29.59077232 -115.44345992 25.6556733 -104.25 22.0625 C-103.54814575 21.83588684 -102.8462915 21.60927368 -102.12316895 21.37579346 C-76.09040046 13 -76.09040046 13 -69 13 C-69 12.01 -69 11.02 -69 10 C-68.30825684 10.18788086 -67.61651367 10.37576172 -66.90380859 10.56933594 C-63.4598998 11.0801023 -60.94374988 10.60868326 -57.5390625 9.890625 C-56.27344482 9.63168457 -55.00782715 9.37274414 -53.70385742 9.10595703 C-53.03808685 8.96595276 -52.37231628 8.82594849 -51.68637085 8.68170166 C-41.2357686 6.493089 -30.77961568 4.5026336 -20.1875 3.125 C-19.29562988 3.00543945 -18.40375977 2.88587891 -17.48486328 2.76269531 C-11.63509683 2.0394029 -5.89098774 1.87263579 0 2 C0 1.34 0 0.68 0 0 Z M-434 502 C-433 505 -433 505 -433 505 Z M-424 568 C-423 572 -423 572 -423 572 Z " fill="#FEFEFE" transform="translate(483,32)"/>
<path d="M0 0 C0.74360779 -0.00067474 1.48721558 -0.00134949 2.25335693 -0.00204468 C16.3069584 0.01803672 30.04915 1.00063724 43.9375 3.25 C45.39978027 3.48348145 45.39978027 3.48348145 46.89160156 3.72167969 C109.08324795 14.11114779 168.18948293 50.57833981 206.9375 100.25 C207.72640625 101.23355469 208.5153125 102.21710938 209.328125 103.23046875 C236.90993495 137.91784193 254.62190086 179.63467622 261.9375 223.25 C262.18089111 224.63928711 262.18089111 224.63928711 262.42919922 226.05664062 C267.11681158 253.82433406 267.21794085 284.57018666 261.9375 312.25 C261.76589355 313.19439941 261.59428711 314.13879883 261.41748047 315.11181641 C254.82311209 350.95948648 242.33527337 384.32655657 226.9375 417.25 C226.38046387 418.44383301 225.82342773 419.63766602 225.24951172 420.86767578 C213.8302662 445.21312471 201.32677597 468.98615809 187.83374023 492.24755859 C187.33302002 493.11719238 186.8322998 493.98682617 186.31640625 494.8828125 C185.8788501 495.63449707 185.44129395 496.38618164 184.99047852 497.16064453 C183.96614477 499.19316208 183.38975157 501.02677023 182.9375 503.25 C182.2775 503.25 181.6175 503.25 180.9375 503.25 C180.9375 503.91 180.9375 504.57 180.9375 505.25 C180.2775 505.25 179.6175 505.25 178.9375 505.25 C178.89625 506.054375 178.855 506.85875 178.8125 507.6875 C177.97906454 511.08077293 177.20302377 512.55301642 175.24609375 515.328125 C171.88560155 520.24571173 169.00132935 525.35136535 166.125 530.5625 C159.39702646 542.6048333 152.2674001 554.38326011 145.06228638 566.14277649 C142.77442883 569.87713498 140.49964281 573.61908762 138.234375 577.3671875 C124.70334569 599.7466569 110.45892691 621.60640252 95.90226746 643.32759094 C93.67765153 646.64736773 91.45707587 649.96970651 89.24536133 653.2980957 C84.94387521 659.77101251 80.6336706 666.23114008 76.125 672.5625 C75.62983887 673.26068848 75.13467773 673.95887695 74.62451172 674.67822266 C68.77906807 682.9050755 62.87694052 691.09080337 56.9375 699.25 C56.09034424 700.41450684 56.09034424 700.41450684 55.22607422 701.60253906 C48.31668765 711.08417538 41.28685191 720.45319115 34.04931641 729.68701172 C30.25468696 734.5332804 26.54217138 739.43178903 22.875 744.375 C16.81126406 752.53693221 10.40465864 760.40596243 3.9375 768.25 C0.81534572 766.89272489 -0.99413119 765.46718037 -3.12890625 762.828125 C-3.6909375 762.13984619 -4.25296875 761.45156738 -4.83203125 760.74243164 C-5.42371094 760.0024292 -6.01539063 759.26242676 -6.625 758.5 C-7.24632812 757.73357178 -7.86765625 756.96714355 -8.5078125 756.17749023 C-10.36863782 753.87557862 -12.21795628 751.5649711 -14.0625 749.25 C-14.55733887 748.62947754 -15.05217773 748.00895508 -15.56201172 747.36962891 C-18.26534032 743.96953637 -20.94174796 740.54918443 -23.60693359 737.11914062 C-25.1866809 735.09053523 -26.774645 733.06852574 -28.36328125 731.046875 C-36.81366858 720.27058412 -45.00657522 709.32373626 -53.0625 698.25 C-53.61824707 697.48655273 -54.17399414 696.72310547 -54.74658203 695.93652344 C-58.02643487 691.4254021 -61.29042066 686.90320285 -64.54052734 682.37060547 C-65.50487386 681.02695551 -66.47111418 679.68466106 -67.43994141 678.34423828 C-101.4999659 631.20056133 -131.4152969 581.07267936 -160.57177734 530.81152344 C-161.93106431 528.47584724 -163.30113383 526.14696896 -164.67578125 523.8203125 C-165.4090404 522.56781734 -166.14213053 521.31522321 -166.875 520.0625 C-167.78185547 518.52529297 -167.78185547 518.52529297 -168.70703125 516.95703125 C-170.01961267 514.33565107 -170.65575075 512.13950443 -171.0625 509.25 C-171.7225 509.25 -172.3825 509.25 -173.0625 509.25 C-176.0625 503.625 -176.0625 503.625 -176.0625 500.25 C-177.0525 500.25 -178.0425 500.25 -179.0625 500.25 C-179.360354 499.63833984 -179.65820801 499.02667969 -179.96508789 498.39648438 C-182.93069411 492.37660889 -186.12298149 486.54684388 -189.5 480.75 C-226.99215149 415.6070198 -260.26661188 344.01571893 -260.3125 267.5 C-260.31317474 266.49111725 -260.31384949 265.4822345 -260.31454468 264.44277954 C-260.29899751 249.82364654 -259.86167178 235.63637751 -257.0625 221.25 C-256.89089355 220.29544922 -256.71928711 219.34089844 -256.54248047 218.35742188 C-253.88003064 203.5961719 -250.08793664 189.37990997 -245.0625 175.25 C-244.77036621 174.42612793 -244.47823242 173.60225586 -244.17724609 172.75341797 C-234.48464381 145.95559375 -220.01766817 121.31646241 -202.0625 99.25 C-201.63066406 98.7152002 -201.19882812 98.18040039 -200.75390625 97.62939453 C-189.01376763 83.19668065 -175.85969342 69.55594888 -161.0625 58.25 C-159.87216707 57.2870455 -158.68349047 56.3220415 -157.49609375 55.35546875 C-113.2398313 19.82256 -56.65244348 0.04660087 0 0 Z " fill="#FDFDFD" transform="translate(511.0625,141.75)"/>
<path d="M0 0 C0.74360779 -0.00067474 1.48721558 -0.00134949 2.25335693 -0.00204468 C16.3069584 0.01803672 30.04915 1.00063724 43.9375 3.25 C45.39978027 3.48348145 45.39978027 3.48348145 46.89160156 3.72167969 C109.08324795 14.11114779 168.18948293 50.57833981 206.9375 100.25 C207.72640625 101.23355469 208.5153125 102.21710938 209.328125 103.23046875 C236.90993495 137.91784193 254.62190086 179.63467622 261.9375 223.25 C262.18089111 224.63928711 262.18089111 224.63928711 262.42919922 226.05664062 C267.11681158 253.82433406 267.21794085 284.57018666 261.9375 312.25 C261.76589355 313.19439941 261.59428711 314.13879883 261.41748047 315.11181641 C254.82311209 350.95948648 242.33527337 384.32655657 226.9375 417.25 C226.38046387 418.44383301 225.82342773 419.63766602 225.24951172 420.86767578 C217.30812104 437.79845471 208.88275506 454.44819966 199.88771057 470.84365845 C198.25388907 473.82280169 196.63656396 476.80817088 195.06054688 479.81835938 C193.30186758 483.16831427 191.50040203 486.49165341 189.6875 489.8125 C188.92953125 491.29327026 188.92953125 491.29327026 188.15625 492.80395508 C183.88044428 500.43980446 179.04726876 502.53397986 170.9375 505.25 C169.46501106 505.89751994 168.00210997 506.56776637 166.5546875 507.26953125 C165.925625 507.56923828 165.2965625 507.86894531 164.6484375 508.17773438 C163.38514025 508.78653613 162.12213588 509.39594587 160.859375 510.00585938 C156.1442136 512.25 156.1442136 512.25 153.9375 512.25 C153.545625 511.44304687 153.15375 510.63609375 152.75 509.8046875 C142.85661749 489.64556009 132.08580149 469.8761244 121.08642578 450.30224609 C119.88148408 448.14994267 118.68750695 445.99185074 117.49609375 443.83203125 C117.08439941 443.08679199 116.67270508 442.34155273 116.24853516 441.57373047 C115.42522342 440.08262501 114.60325213 438.59077854 113.78271484 437.09814453 C111.53049528 433.02665288 109.20729178 429.01294281 106.79296875 425.03515625 C106.01651001 423.74242798 106.01651001 423.74242798 105.22436523 422.42358398 C104.21795631 420.75465583 103.19836425 419.09359015 102.16430664 417.44165039 C101.7130542 416.69004639 101.26180176 415.93844238 100.796875 415.1640625 C100.38920898 414.5035791 99.98154297 413.8430957 99.56152344 413.16259766 C98.9375 411.25 98.9375 411.25 99.68505859 409.12866211 C101.37485228 406.59397157 103.40628983 405.0531847 105.8125 403.1875 C144.30937105 372.45046945 168.35390864 329.5041416 174.25219727 280.64306641 C176.60111584 258.84626916 174.61933065 236.38779223 168.9375 215.25 C168.75848145 214.57807617 168.57946289 213.90615234 168.39501953 213.21386719 C160.99744988 186.14443749 146.79493154 161.76820484 127.31005859 141.67382812 C126.10114139 140.41975393 124.91759428 139.14132807 123.73828125 137.859375 C112.99386611 126.48052772 99.53866713 117.82077917 85.9375 110.25 C84.87917969 109.64671875 83.82085938 109.0434375 82.73046875 108.421875 C43.20451052 87.20116707 -5.25855884 83.77974601 -47.84863281 96.55859375 C-72.24870698 104.17890805 -95.51446444 116.81215891 -114.00415039 134.56958008 C-116.01186557 136.47990992 -117.77435091 138.11124279 -120.28515625 139.3203125 C-122.22082382 140.10965875 -122.22082382 140.10965875 -122.97338867 142.10742188 C-124.14616332 144.4145885 -125.37804574 145.70726344 -127.265625 147.4609375 C-155.84047959 175.28226697 -169.71492437 218.42949668 -170.34570312 257.45654297 C-170.46992367 270.62667216 -169.93110807 283.36102772 -167.0625 296.25 C-166.89621094 297.04873535 -166.72992188 297.8474707 -166.55859375 298.67041016 C-157.95494372 339.54571413 -132.7959493 379.40401715 -99.0625 404.25 C-98.4025 404.58 -97.7425 404.91 -97.0625 405.25 C-98.60823558 410.45318537 -100.87193105 415.05896082 -103.359375 419.85546875 C-103.7847908 420.68405396 -104.2102066 421.51263916 -104.64851379 422.36633301 C-106.03231211 425.05890585 -107.42223055 427.74826353 -108.8125 430.4375 C-109.7723587 432.30103126 -110.73191086 434.16472044 -111.69116211 436.02856445 C-114.05209635 440.61333387 -116.4181786 445.19542476 -118.7855835 449.77685547 C-120.26368124 452.63964981 -121.73748362 455.50463208 -123.21029663 458.37014771 C-128.88556134 469.41015321 -134.6321923 480.40707086 -140.5625 491.3125 C-141.03115479 492.17512451 -141.49980957 493.03774902 -141.98266602 493.92651367 C-145.19670812 499.79134781 -148.5847327 505.53793411 -152.0625 511.25 C-157.66573353 509.45397189 -163.15524787 507.41360771 -168.625 505.25 C-169.55763672 504.91355469 -170.49027344 504.57710937 -171.45117188 504.23046875 C-176.51909302 502.18596172 -179.41442576 500.51739296 -181.875 495.53125 C-182.61003245 493.77327441 -183.33924099 492.01285203 -184.0625 490.25 C-184.90841956 488.68260381 -185.78230132 487.12997351 -186.68359375 485.59375 C-187.13661865 484.81306152 -187.58964355 484.03237305 -188.05639648 483.22802734 C-188.53278564 482.41027832 -189.0091748 481.5925293 -189.5 480.75 C-226.99215149 415.6070198 -260.26661188 344.01571893 -260.3125 267.5 C-260.31317474 266.49111725 -260.31384949 265.4822345 -260.31454468 264.44277954 C-260.29899751 249.82364654 -259.86167178 235.63637751 -257.0625 221.25 C-256.89089355 220.29544922 -256.71928711 219.34089844 -256.54248047 218.35742188 C-253.88003064 203.5961719 -250.08793664 189.37990997 -245.0625 175.25 C-244.77036621 174.42612793 -244.47823242 173.60225586 -244.17724609 172.75341797 C-234.48464381 145.95559375 -220.01766817 121.31646241 -202.0625 99.25 C-201.63066406 98.7152002 -201.19882812 98.18040039 -200.75390625 97.62939453 C-189.01376763 83.19668065 -175.85969342 69.55594888 -161.0625 58.25 C-159.87216707 57.2870455 -158.68349047 56.3220415 -157.49609375 55.35546875 C-113.2398313 19.82256 -56.65244348 0.04660087 0 0 Z " fill="#000000" transform="translate(511.0625,141.75)"/>
<path d="M0 0 C21.12 0 42.24 0 64 0 C64 0.33 64 0.66 64 1 C64.86761963 1.08975098 65.73523926 1.17950195 66.62915039 1.27197266 C92.41276035 3.99066989 117.87865748 7.6556874 142.94091797 14.52709961 C147.06821994 15.64020928 150.7227883 16.22973965 155 16 C155.33 16.66 155.66 17.32 156 18 C157.75725351 18.82300246 157.75725351 18.82300246 159.89453125 19.47265625 C160.68537109 19.73240234 161.47621094 19.99214844 162.29101562 20.25976562 C163.12310547 20.52466797 163.95519531 20.78957031 164.8125 21.0625 C165.63298828 21.33126953 166.45347656 21.60003906 167.29882812 21.87695312 C171.63046049 23.29702222 171.63046049 23.29702222 176.02807617 24.48803711 C178.06319121 25.01640609 179.90653484 25.71588481 181.84375 26.53125 C182.58455811 26.84223633 183.32536621 27.15322266 184.08862305 27.47363281 C184.88437744 27.81233398 185.68013184 28.15103516 186.5 28.5 C187.34022705 28.85674805 188.1804541 29.21349609 189.04614258 29.58105469 C219.97847375 42.77992146 250.35461646 57.3840504 278.03759766 76.63818359 C280.2807326 78.19481543 282.53707984 79.73144534 284.79296875 81.26953125 C295.00281293 88.2756742 304.78438595 95.62110709 314.27929688 103.56738281 C316.76594524 105.6377081 319.29216287 107.65841502 321.8125 109.6875 C326.63843902 113.62868353 331.22363266 117.79040741 335.78515625 122.03125 C337.83679121 124.02671788 337.83679121 124.02671788 340 125 C340 125.66 340 126.32 340 127 C340.79821167 127.31142944 340.79821167 127.31142944 341.61254883 127.62915039 C344.96569479 129.5544919 347.4956177 132.2105717 350.19921875 134.93359375 C350.79370316 135.5261647 351.38818756 136.11873566 352.00068665 136.72926331 C353.25967359 137.98689024 354.51614228 139.2470425 355.77026367 140.50952148 C357.65658363 142.40641041 359.55314398 144.29256944 361.45117188 146.17773438 C368.43082282 153.1497458 374.87195135 160.26207455 381 168 C381.98288371 169.15253088 382.97385905 170.29826401 383.9765625 171.43359375 C401.95475305 191.79311188 417.51985202 214.4382625 431 238 C431.60255615 239.0528418 431.60255615 239.0528418 432.21728516 240.12695312 C438.16669345 250.57670139 443.81996985 261.14751412 449 272 C449.38655762 272.80888672 449.77311523 273.61777344 450.17138672 274.45117188 C488.70250523 355.70124169 502.25821636 448.12949122 467.3125 620.875 C454.7778631 655.86518048 437.62292222 689.12042843 417 720 C416.48147461 720.77907715 415.96294922 721.5581543 415.42871094 722.36083984 C405.93331323 736.5810972 395.73011923 749.92720278 384.6171875 762.91015625 C382.18099681 765.76542868 379.83967203 768.69000217 377.5 771.625 C373.409085 776.67021524 368.94606571 781.17736539 364.28515625 785.6875 C361.87817981 787.9765926 361.87817981 787.9765926 360 791 C359.34 791 358.68 791 358 791 C357.731875 791.639375 357.46375 792.27875 357.1875 792.9375 C356 795 356 795 353 796 C352.67 796.99 352.34 797.98 352 799 C350.3984375 800.578125 350.3984375 800.578125 348.375 802.25 C345.681942 804.52837474 343.13071089 806.83122111 340.6875 809.375 C337.03532376 813.08488557 333.05157538 816.30490824 328.99609375 819.5625 C326.4581049 821.62730449 323.97762456 823.74236553 321.50976562 825.88989258 C298.6759201 845.64258721 272.33418945 862.24756751 245.78662109 876.49951172 C243.26872016 877.85530453 240.76735413 879.23659831 238.26953125 880.62890625 C216.29926098 892.72573227 192.71984061 901.98023278 169 910 C168.20754883 910.27360352 167.41509766 910.54720703 166.59863281 910.82910156 C155.72562035 914.56684726 144.64447985 917.45171115 133.5 920.25 C132.81300018 920.42298615 132.12600037 920.59597229 131.41818237 920.77420044 C108.87142038 926.42548218 108.87142038 926.42548218 101 926 C100.67 926.66 100.34 927.32 100 928 C97.74536133 928.36132812 97.74536133 928.36132812 94.76953125 928.53125 C90.35275359 928.82835143 85.9708846 929.20141676 81.57421875 929.71875 C55.69701059 932.68795762 30.04903573 933.34896048 4.04443359 932.31933594 C2.95880379 932.27839813 2.95880379 932.27839813 1.85124207 932.2366333 C-0.11670976 932.16092682 -2.08437126 932.07777847 -4.05200195 931.99414062 C-6.93321479 931.78100949 -6.93321479 931.78100949 -9 933 C-9 932.01 -9 931.02 -9 930 C-9.59280762 930.01812744 -10.18561523 930.03625488 -10.79638672 930.05493164 C-18.35485499 930.18367721 -25.51963851 929.18183284 -32.96484375 927.97851562 C-37.32604465 927.3228106 -41.12114319 926.86382401 -45.4921875 927.59765625 C-46.64976562 927.73042969 -47.80734375 927.86320313 -49 928 C-49.4547168 927.54206055 -49.90943359 927.08412109 -50.37792969 926.61230469 C-52.58246823 924.42103851 -54.43028824 924.21503065 -57.4609375 923.60546875 C-59.11065552 923.26092651 -59.11065552 923.26092651 -60.79370117 922.90942383 C-62.56644409 922.55207153 -62.56644409 922.55207153 -64.375 922.1875 C-102.24779119 914.11624942 -139.74660667 901.15261902 -174 883 C-175.41418213 882.25991699 -175.41418213 882.25991699 -176.85693359 881.50488281 C-208.8264555 864.75069597 -238.36922203 845.24305786 -266 822 C-266.53157715 821.55333984 -267.0631543 821.10667969 -267.61083984 820.64648438 C-280.04091242 810.17532606 -291.85976181 799.22118281 -303.375 787.75 C-304.21949707 786.91017578 -305.06399414 786.07035156 -305.93408203 785.20507812 C-320 771.10292934 -320 771.10292934 -320 768 C-320.66 768 -321.32 768 -322 768 C-323.87001078 765.80644768 -325.63431966 763.60515924 -327.375 761.3125 C-328.34101287 760.05849131 -329.30715651 758.80458335 -330.2734375 757.55078125 C-331.18244379 756.36730433 -332.09130759 755.18371794 -333 754 C-335.55061969 750.45070309 -335.55061969 750.45070309 -339 748 C-340.02566373 746.34900282 -341.02079677 744.67896957 -342 743 C-343.33409951 741.08999218 -344.68897596 739.19435629 -346.0625 737.3125 C-346.75472656 736.35988281 -347.44695312 735.40726563 -348.16015625 734.42578125 C-349.92606415 731.98321267 -349.92606415 731.98321267 -352 730 C-352.98580641 728.53899948 -353.9385852 727.05563902 -354.875 725.5625 C-355.49503906 724.57507813 -356.11507812 723.58765625 -356.75390625 722.5703125 C-357.10598145 722.00860352 -357.45805664 721.44689453 -357.82080078 720.86816406 C-359.12777671 718.79756782 -360.45179982 716.73844401 -361.77734375 714.6796875 C-366.9906491 706.55291447 -372.04448148 698.370534 -376.75 689.9375 C-377.18030518 689.16978271 -377.61061035 688.40206543 -378.05395508 687.61108398 C-381 682.25458328 -381 682.25458328 -381 680 C-381.66 679.67 -382.32 679.34 -383 679 C-383.91040039 677.4597168 -383.91040039 677.4597168 -384.84765625 675.44921875 C-385.20085937 674.69874268 -385.5540625 673.9482666 -385.91796875 673.17504883 C-386.48451172 671.94371216 -386.48451172 671.94371216 -387.0625 670.6875 C-387.45953125 669.83373779 -387.8565625 668.97997559 -388.265625 668.1003418 C-389.10105478 666.29853454 -389.93317551 664.4951898 -390.76220703 662.69042969 C-391.92352467 660.16622449 -393.09917353 657.64918303 -394.27734375 655.1328125 C-404.17589631 633.79231465 -413.50385193 610.91498402 -419 588 C-419.37318359 586.55947266 -419.37318359 586.55947266 -419.75390625 585.08984375 C-420.02074219 584.04957031 -420.28757812 583.00929688 -420.5625 581.9375 C-420.83191406 580.89464844 -421.10132813 579.85179687 -421.37890625 578.77734375 C-422 576 -422 576 -422 573 C-422.99 573 -423.98 573 -425 573 C-425.33 571.35 -425.66 569.7 -426 568 C-425.34 568 -424.68 568 -424 568 C-424.11362262 566.5199159 -424.24122908 565.04089926 -424.375 563.5625 C-424.44460938 562.73878906 -424.51421875 561.91507813 -424.5859375 561.06640625 C-424.79089844 560.04353516 -424.79089844 560.04353516 -425 559 C-425.66 558.67 -426.32 558.34 -427 558 C-427.34594727 556.14550781 -427.34594727 556.14550781 -427.50390625 553.703125 C-427.99483379 547.65730399 -428.94661837 541.73146336 -429.9375 535.75 C-431.38941844 526.84485646 -432.78441642 517.9409371 -434 509 C-434.33 509 -434.66 509 -435 509 C-435 486.23 -435 463.46 -435 440 C-434.67 440 -434.34 440 -434 440 C-433.80538512 437.06281233 -433.61902407 434.12550068 -433.4375 431.1875 C-433.38142578 430.35412109 -433.32535156 429.52074219 -433.26757812 428.66210938 C-433.21923828 427.85966797 -433.17089844 427.05722656 -433.12109375 426.23046875 C-433.05039673 425.12288208 -433.05039673 425.12288208 -432.97827148 423.99291992 C-432.90070362 421.78811208 -432.90070362 421.78811208 -434 419 C-433.01 419 -432.02 419 -431 419 C-430.95319092 418.15034668 -430.90638184 417.30069336 -430.8581543 416.42529297 C-430.32633115 407.87976867 -429.29842459 399.55412898 -427.8125 391.125 C-427.59762939 389.88210205 -427.38275879 388.6392041 -427.16137695 387.35864258 C-425.49609758 378.04198334 -423.39957296 368.88658121 -420.88012695 359.76416016 C-419.40832456 354.31486618 -418.71529038 349.64784433 -419 344 C-418.34 344 -417.68 344 -417 344 C-416.68885254 343.03513672 -416.37770508 342.07027344 -416.05712891 341.07617188 C-408.19572809 316.77171785 -399.63883276 293.19610033 -388.49609375 270.16796875 C-386.95958381 267.07737313 -386.95958381 267.07737313 -386 264 C-385.21493 262.62974867 -384.39714374 261.27813173 -383.5625 259.9375 C-381.1127902 255.92464204 -378.81025896 251.85570063 -376.5625 247.72827148 C-369.03864752 233.93993012 -360.48146482 220.92335949 -351.43969727 208.08740234 C-349.56602404 205.4067733 -348.04045739 203.12137218 -347 200 C-345.34758976 198.31919783 -343.67864799 196.65459859 -342 195 C-340.4270945 193.02447364 -338.8868939 191.02260054 -337.375 189 C-333.38832586 183.72282861 -329.22520179 178.64026066 -324.91577148 173.62426758 C-321.55705794 169.70285655 -318.39517924 165.67265241 -315.33984375 161.51171875 C-314.89769531 161.01285156 -314.45554687 160.51398438 -314 160 C-313.34 160 -312.68 160 -312 160 C-311.76152344 159.4328125 -311.52304687 158.865625 -311.27734375 158.28125 C-309.73031477 155.51836033 -307.84581785 153.68958559 -305.5625 151.5 C-303.28800867 149.31169203 -301.19811229 147.27222959 -299.33984375 144.71875 C-298.89769531 144.1515625 -298.45554687 143.584375 -298 143 C-297.34 143 -296.68 143 -296 143 C-296 142.34 -296 141.68 -296 141 C-295.34 141 -294.68 141 -294 141 C-293.773125 140.443125 -293.54625 139.88625 -293.3125 139.3125 C-290.6459394 134.61427418 -286.31750822 131.40402702 -282.24609375 127.94921875 C-279.14566102 125.25858235 -276.09799342 122.51352961 -273.0625 119.75 C-272.47017578 119.21818115 -271.87785156 118.6863623 -271.26757812 118.13842773 C-269.80612673 116.8002596 -268.39800937 115.40431618 -267 114 C-267 113.34 -267 112.68 -267 112 C-266.41734375 111.90332031 -265.8346875 111.80664062 -265.234375 111.70703125 C-262.51821073 110.8475457 -261.29622953 109.66415773 -259.25 107.6875 C-253.20784674 102.14060521 -246.63706966 97.36398363 -240.0390625 92.50830078 C-238.15074577 91.11150711 -236.27648706 89.69820441 -234.40625 88.27734375 C-210.08663657 69.91590035 -182.89274887 54.27119487 -155 42 C-155 41.34 -155 40.68 -155 40 C-154.11924805 39.87866699 -153.23849609 39.75733398 -152.33105469 39.63232422 C-149.16536656 39.03139104 -146.64548151 38.16720855 -143.703125 36.8828125 C-142.16640137 36.22744507 -142.16640137 36.22744507 -140.59863281 35.55883789 C-138.94105957 34.84908813 -138.94105957 34.84908813 -137.25 34.125 C-126.40268027 29.59077232 -115.44345992 25.6556733 -104.25 22.0625 C-103.54814575 21.83588684 -102.8462915 21.60927368 -102.12316895 21.37579346 C-76.09040046 13 -76.09040046 13 -69 13 C-69 12.01 -69 11.02 -69 10 C-68.30825684 10.18788086 -67.61651367 10.37576172 -66.90380859 10.56933594 C-63.4598998 11.0801023 -60.94374988 10.60868326 -57.5390625 9.890625 C-56.27344482 9.63168457 -55.00782715 9.37274414 -53.70385742 9.10595703 C-53.03808685 8.96595276 -52.37231628 8.82594849 -51.68637085 8.68170166 C-41.2357686 6.493089 -30.77961568 4.5026336 -20.1875 3.125 C-19.29562988 3.00543945 -18.40375977 2.88587891 -17.48486328 2.76269531 C-11.63509683 2.0394029 -5.89098774 1.87263579 0 2 C0 1.34 0 0.68 0 0 Z M-239 135 C-240.10988281 135.95712891 -240.10988281 135.95712891 -241.2421875 136.93359375 C-243.17166275 138.61122986 -245.08657118 140.30408832 -247 142 C-247.72074707 142.63591064 -248.44149414 143.27182129 -249.18408203 143.92700195 C-255.56269694 149.60406059 -261.66347892 155.51219228 -267.6875 161.5625 C-268.58533203 162.45646484 -269.48316406 163.35042969 -270.40820312 164.27148438 C-275.48249526 169.35321137 -280.33781687 174.53989522 -285 180 C-286.05682128 181.20338183 -287.11539546 182.40522668 -288.17578125 183.60546875 C-295.11287501 191.50786565 -301.75296213 199.53517289 -308 208 C-308.5053125 208.68465332 -309.010625 209.36930664 -309.53125 210.07470703 C-360.40035627 279.27075393 -392.04513577 359.7804734 -397.1875 468.5 C-397.18689575 469.33037781 -397.1862915 470.16075562 -397.18566895 471.01629639 C-397.15865706 484.76633362 -396.65345403 498.33796646 -395 512 C-394.8146167 513.59303955 -394.8146167 513.59303955 -394.62548828 515.21826172 C-391.1509933 544.29873187 -384.35096192 572.27385335 -375 600 C-374.44602539 601.66095703 -374.44602539 601.66095703 -373.88085938 603.35546875 C-357.14069182 652.90167395 -329.38046988 698.94343615 -296 739 C-295.37605347 739.75257584 -295.37605347 739.75257584 -294.73950195 740.52035522 C-287.2927728 749.47411881 -279.41847442 757.86993027 -271.14404297 766.06176758 C-269.23205738 767.95526917 -267.32842351 769.85688 -265.42578125 771.75976562 C-259.4535951 777.71483213 -253.46437772 783.57447186 -247 789 C-245.97814406 789.88814772 -244.95726477 790.77742074 -243.9375 791.66796875 C-215.87463967 815.73784231 -184.31009759 835.86491916 -151.07470703 851.98925781 C-148.91719073 853.04034248 -146.76943912 854.10999938 -144.62109375 855.1796875 C-132.06998869 861.35588383 -119.17630665 866.32643356 -106 871 C-105.02401855 871.34949707 -104.04803711 871.69899414 -103.04248047 872.05908203 C-61.36010718 886.87746879 -17.46739455 894.2596529 26.75 894.1875 C27.50423248 894.18656342 28.25846497 894.18562683 29.03555298 894.18466187 C84.85886359 894.03617032 139.83881387 882.45446269 191 860 C191.9801709 859.57283691 192.9603418 859.14567383 193.97021484 858.70556641 C209.87268767 851.71955109 225.0645406 843.85779025 240 835 C240.80373047 834.5270752 241.60746094 834.05415039 242.43554688 833.56689453 C271.92016625 816.16157752 300.00000066 795.50585412 324 771 C326.75772938 768.23277758 329.52695151 765.47757526 332.3046875 762.73046875 C338.42814882 756.66317816 344.45840176 750.61015754 350 744 C350.78117188 743.10796875 351.56234375 742.2159375 352.3671875 741.296875 C371.09876926 719.79757529 386.72803563 695.62419865 401 671 C401.44907715 670.23494141 401.8981543 669.46988281 402.36083984 668.68164062 C432.26508504 617.49203156 448.94476563 559.72629859 455 501 C455.12930908 499.75814941 455.12930908 499.75814941 455.26123047 498.49121094 C455.73095363 493.66331295 455.92200746 488.84719134 456 484 C456.02046387 482.82840332 456.04092773 481.65680664 456.06201172 480.44970703 C457.17860686 408.67088879 441.98171822 341.82913028 411 277 C410.39188477 275.71005127 410.39188477 275.71005127 409.77148438 274.39404297 C400.15869525 254.07109639 388.33765223 235.07816957 375 217 C374.49194824 216.30793457 373.98389648 215.61586914 373.46044922 214.90283203 C367.20803506 206.40495669 360.79926414 198.07057897 354 190 C353.54125488 189.45102051 353.08250977 188.90204102 352.60986328 188.33642578 C346.82320781 181.42029453 340.96314119 174.7290186 334.44921875 168.4765625 C332.43696787 166.44184629 330.58534947 164.37777507 328.7265625 162.20703125 C324.96700472 157.87137548 320.89388332 153.96004461 316.6875 150.0625 C315.93621826 149.36229736 315.18493652 148.66209473 314.41088867 147.94067383 C312.2777701 145.95625436 310.13921336 143.97784342 308 142 C307.06414063 141.12601562 306.12828125 140.25203125 305.1640625 139.3515625 C298.96544813 133.64718981 292.39040009 128.47622285 285.72314453 123.33789062 C284.15600887 122.12112901 282.60626487 120.88205044 281.05859375 119.640625 C222.38839975 73.07945905 150.93639877 45.8148018 77 37 C76.02756348 36.87995605 75.05512695 36.75991211 74.05322266 36.63623047 C-26.09141972 24.7155182 -129.10265293 54.83969846 -239 135 Z M-434 502 C-433 505 -433 505 -433 505 Z M-424 568 C-423 572 -423 572 -423 572 Z " fill="#000000" transform="translate(483,32)"/>
<path d="M0 0 C2.31248236 2.24537284 4.01236107 4.42578447 5.6875 7.1875 C6.12449219 7.90292969 6.56148437 8.61835937 7.01171875 9.35546875 C7.33785156 9.89816406 7.66398437 10.44085937 8 11 C13.66008415 10.49767874 17.71422103 8.23536089 22.5625 5.5 C31.46626814 0.50275046 31.46626814 0.50275046 36 0 C29.2725284 11.97224387 22.23965413 23.76387376 15.22320557 35.56800842 C12.74841545 39.73363389 10.28553786 43.90613542 7.828125 48.08203125 C0.54169685 60.45504579 -6.86094037 72.72558227 -14.60839844 84.81542969 C-15.96423783 86.94385967 -17.30165062 89.08262867 -18.6328125 91.2265625 C-27.42997296 105.36179033 -36.71682216 119.17131473 -45.9839325 133.00065613 C-48.2285451 136.35049378 -50.46922271 139.70282541 -52.70092773 143.0612793 C-56.99949423 149.52979833 -61.30689147 155.98544003 -65.8125 162.3125 C-66.30766113 163.01068848 -66.80282227 163.70887695 -67.31298828 164.42822266 C-73.15843193 172.6550755 -79.06055948 180.84080337 -85 189 C-85.56477051 189.77633789 -86.12954102 190.55267578 -86.71142578 191.35253906 C-93.62081235 200.83417538 -100.65064809 210.20319115 -107.88818359 219.43701172 C-111.68281304 224.2832804 -115.39532862 229.18178903 -119.0625 234.125 C-125.12623594 242.28693221 -131.53284136 250.15596243 -138 258 C-141.12215428 256.64272489 -142.93163119 255.21718037 -145.06640625 252.578125 C-145.90945313 251.54570679 -145.90945313 251.54570679 -146.76953125 250.49243164 C-147.36121094 249.7524292 -147.95289063 249.01242676 -148.5625 248.25 C-149.18382812 247.48357178 -149.80515625 246.71714355 -150.4453125 245.92749023 C-152.30613782 243.62557862 -154.15545628 241.3149711 -156 239 C-156.49483887 238.37947754 -156.98967773 237.75895508 -157.49951172 237.11962891 C-160.20284032 233.71953637 -162.87924796 230.29918443 -165.54443359 226.86914062 C-167.1241809 224.84053523 -168.712145 222.81852574 -170.30078125 220.796875 C-178.75116858 210.02058412 -186.94407522 199.07373626 -195 188 C-195.55574707 187.23655273 -196.11149414 186.47310547 -196.68408203 185.68652344 C-199.96393487 181.1754021 -203.22792066 176.65320285 -206.47802734 172.12060547 C-207.44237386 170.77695551 -208.40861418 169.43466106 -209.37744141 168.09423828 C-244.01857899 120.14622229 -274.35165824 69.11983984 -304 18 C-304.44939941 17.2265625 -304.89879883 16.453125 -305.36181641 15.65625 C-306.51542952 13.66859666 -307.66506115 11.6787223 -308.8125 9.6875 C-309.41707031 8.63949219 -310.02164062 7.59148438 -310.64453125 6.51171875 C-312 4 -312 4 -313 1 C-307.71506279 2.60565268 -302.98248584 4.95314796 -298.12304688 7.52148438 C-294.76145772 9.25566673 -291.75615331 10.48166504 -288 11 C-287.566875 9.6078125 -287.566875 9.6078125 -287.125 8.1875 C-286 5 -286 5 -284 2 C-279.99015152 3.67808744 -276.93511979 6.43627083 -273.6875 9.25 C-273.11298096 9.74218018 -272.53846191 10.23436035 -271.9465332 10.74145508 C-270.2947038 12.15754226 -268.64718723 13.57851912 -267 15 C-265.56281737 16.22953773 -264.12540068 17.45880208 -262.6875 18.6875 C-261.800625 19.450625 -260.91375 20.21375 -260 21 C-260.495 22.485 -260.495 22.485 -261 24 C-261.56575328 29.52821777 -262.12991655 35.16858518 -259 40 C-254.59822611 45.11254191 -248.59972505 47.3400275 -242 48 C-242.04640625 48.6290625 -242.0928125 49.258125 -242.140625 49.90625 C-242.40441604 56.16186609 -241.90602267 60.94705655 -238 66 C-232.73347922 70.86384917 -228.56408199 73.14781273 -221.3125 73.0625 C-220.31863281 73.05347656 -219.32476562 73.04445313 -218.30078125 73.03515625 C-217.54152344 73.02355469 -216.78226562 73.01195312 -216 73 C-215.90203125 73.58007812 -215.8040625 74.16015625 -215.703125 74.7578125 C-214.41648991 81.47937167 -212.59258568 86.00154854 -207 90.3125 C-202.5918287 92.79209636 -199.28394951 93.12242797 -194.25 93.0625 C-193.26515625 93.05347656 -192.2803125 93.04445313 -191.265625 93.03515625 C-190.51796875 93.02355469 -189.7703125 93.01195312 -189 93 C-188.76925781 93.53109375 -188.53851563 94.0621875 -188.30078125 94.609375 C-185.11751659 101.50435143 -181.15317547 105.13872981 -174 108 C-167.72350609 108.68470843 -163.00132164 107.24653382 -158.02734375 103.5234375 C-153.19318866 99.44374592 -149.03735535 94.85744316 -145 90 C-141.74752129 91.08415957 -139.34423877 92.45417061 -136.6875 94.5625 C-132.92531413 97.30677844 -129.66338473 98.31856139 -125 98 C-120.38174878 96.92485157 -117.67984976 96.01977465 -115 92 C-114.33274975 89.08826828 -114.33274975 89.08826828 -115 86 C-116.99880146 83.97377596 -118.69886978 82.53017822 -121 80.9375 C-121.59433838 80.50050781 -122.18867676 80.06351563 -122.80102539 79.61328125 C-125.91246594 77.35379785 -129.0628255 75.34850591 -132.4375 73.5 C-136.59303337 71.0606932 -138.29403451 67.52343674 -140.5546875 63.37890625 C-142.90348145 59.51291837 -145.94152607 57.02923697 -150 55 C-150 54.34 -150 53.68 -150 53 C-139.7487126 52.37781204 -131.79364497 60.86710623 -124.125 66.875 C-121.08536064 69.25261166 -118.04398619 71.62795575 -115 74 C-114.36143066 74.50015625 -113.72286133 75.0003125 -113.06494141 75.515625 C-104.93288364 82.11291464 -104.93288364 82.11291464 -94.93359375 83.56640625 C-90.79621964 82.35444818 -88.07067588 80.10636508 -85.125 77.0625 C-83.70682762 74.46251731 -83.68797173 72.93183551 -84 70 C-85.30562133 68.28950008 -85.30562133 68.28950008 -87.234375 66.9765625 C-87.94400391 66.43797607 -88.65363281 65.89938965 -89.38476562 65.34448242 C-90.16529297 64.77705322 -90.94582031 64.20962402 -91.75 63.625 C-92.95172852 62.72068237 -92.95172852 62.72068237 -94.17773438 61.7980957 C-96.77364652 59.84940489 -99.38546078 57.9236085 -102 56 C-105.50422445 53.40148477 -109.0031511 50.7959299 -112.5 48.1875 C-113.76360352 47.24789429 -113.76360352 47.24789429 -115.05273438 46.28930664 C-121.01168717 41.8277711 -126.65372683 37.19151263 -132 32 C-131.67 30.68 -131.34 29.36 -131 28 C-128.90625 27.23046875 -128.90625 27.23046875 -126 27 C-123.60741446 28.3443189 -121.64624337 29.64683504 -119.5 31.3125 C-118.88398926 31.77180908 -118.26797852 32.23111816 -117.63330078 32.7043457 C-115.74298155 34.12051187 -113.86999751 35.55714402 -112 37 C-110.97648438 37.78117188 -109.95296875 38.56234375 -108.8984375 39.3671875 C-106.83337241 40.95200489 -104.77234396 42.5420925 -102.71484375 44.13671875 C-97.98362036 47.79466152 -93.21279969 51.39988846 -88.4375 55 C-87.56786621 55.65959717 -86.69823242 56.31919434 -85.80224609 56.9987793 C-84.97934082 57.61793213 -84.15643555 58.23708496 -83.30859375 58.875 C-82.57439209 59.42929687 -81.84019043 59.98359375 -81.08374023 60.5546875 C-75.77078413 64.23983105 -71.38728447 64.79595391 -65 64 C-61.20558465 62.69522892 -58.59965579 60.71209125 -56 57.625 C-54.70070899 54.2143611 -54.99553616 52.49800126 -56 49 C-58.26368168 46.6743008 -58.26368168 46.6743008 -61.25 44.75 C-62.357582 43.96859642 -63.46432609 43.18600407 -64.5703125 42.40234375 C-65.42737793 41.80655518 -65.42737793 41.80655518 -66.30175781 41.19873047 C-68.97036862 39.31505033 -71.54322079 37.31288618 -74.125 35.3125 C-75.20828731 34.47650287 -76.29162257 33.64056785 -77.375 32.8046875 C-78.58339848 31.86987587 -79.79172668 30.9349734 -81 30 C-82.06541016 29.17677246 -82.06541016 29.17677246 -83.15234375 28.33691406 C-92.20070506 21.34183475 -101.20971254 14.31878559 -110 7 C-109.67 5.35 -109.34 3.7 -109 2 C-103.34730698 2.43372865 -100.2062084 3.80536539 -95.6875 7.1875 C-94.80288086 7.84310913 -94.80288086 7.84310913 -93.90039062 8.51196289 C-91.91972769 9.99054723 -89.95845343 11.49213531 -88 13 C-87.28279785 13.54978516 -86.5655957 14.09957031 -85.82666016 14.66601562 C-79.19243028 19.76327469 -72.60855931 24.92388914 -66.05859375 30.12890625 C-62.72467823 32.77768603 -59.36877748 35.39567587 -56 38 C-54.73929688 38.99580078 -54.73929688 38.99580078 -53.453125 40.01171875 C-49.03806785 43.27733861 -45.64404193 44.89198768 -40.0703125 44.4453125 C-35.90283254 43.54891115 -33.30319584 41.72541506 -30.74609375 38.33984375 C-28.32177779 34.22610901 -27.93733566 31.39764704 -28.45703125 26.67578125 C-28.50355288 23.27431267 -28.48214123 21.61827607 -26.37011719 18.90991211 C-24.02346275 16.99800574 -21.62512915 15.36046836 -19.0625 13.75 C-17.38590586 12.62099789 -15.710122 11.49079155 -14.03515625 10.359375 C-13.2064502 9.81603516 -12.37774414 9.27269531 -11.52392578 8.71289062 C-7.53113455 6.00313794 -3.76423772 3.01594254 0 0 Z " fill="#000000" transform="translate(653,652)"/>
<path d="M0 0 C-2.41549934 4.37090357 -5.37080755 7.99650329 -8.625 11.75 C-9.1519043 12.36182129 -9.67880859 12.97364258 -10.22167969 13.60400391 C-14.59646546 18.63646316 -19.17504223 23.39435849 -24 28 C-27.67882785 26.62931704 -31.09744434 24.94770744 -34.56738281 23.13085938 C-50.26572254 14.97994164 -66.18784826 12.07037785 -83.625 16.625 C-98.64421556 21.67244129 -110.05262397 31.7182087 -117.40234375 45.66015625 C-125.47431185 62.29542964 -124.79940384 80.73445457 -119 98 C-113.79140007 111.34479224 -104.77022133 120.77270381 -91.8671875 126.83203125 C-75.48019122 133.50738804 -57.93710626 134.22299089 -41 129 C-38.69 128.01 -36.38 127.02 -34 126 C-33.34 115.44 -32.68 104.88 -32 94 C-41.97695626 94.0394809 -41.97695626 94.0394809 -51.95385742 94.09008789 C-53.20013916 94.09258545 -54.4464209 94.09508301 -55.73046875 94.09765625 C-57.63928833 94.10551147 -57.63928833 94.10551147 -59.58666992 94.11352539 C-63 94 -63 94 -68 93 C-68 82.44 -68 71.88 -68 61 C-43.25 61 -18.5 61 7 61 C7.40108809 81.14353535 7.40108809 81.14353535 7.48828125 89.7578125 C7.54797017 95.62690092 7.61842216 101.49442328 7.75439453 107.36230469 C7.86338725 112.09572936 7.92290922 116.8274745 7.94877243 121.5620575 C7.96719169 123.36433859 8.0031647 125.16653185 8.05730057 126.96809387 C8.46374685 141.05984365 8.46374685 141.05984365 4.85374451 145.84480286 C2.31996388 147.91077991 -0.11042022 149.48386831 -3 151 C-4.39042964 151.85627841 -5.77998879 152.71397521 -7.16796875 153.57421875 C-8.50005163 154.29321387 -9.84009466 154.99764665 -11.1875 155.6875 C-11.91235596 156.06342285 -12.63721191 156.4393457 -13.3840332 156.82666016 C-37.90146464 169.1935528 -69.36139792 173.52895791 -96 166 C-97.24910156 165.64808594 -98.49820313 165.29617188 -99.78515625 164.93359375 C-112.85307977 161.01454406 -123.66733373 154.82278722 -134 146 C-135.23943359 145.05060547 -135.23943359 145.05060547 -136.50390625 144.08203125 C-143.9161988 137.89932088 -149.5029819 129.4677894 -154 121 C-154.5878125 119.90171875 -155.175625 118.8034375 -155.78125 117.671875 C-167.48519085 94.79964986 -169.55687747 66.37033357 -161.74609375 41.9375 C-153.71066459 18.41524826 -138.37502523 -0.00642931 -116.125 -11.3125 C-78.32152607 -29.70301076 -33.62277842 -25.14269714 0 0 Z " fill="#000000" transform="translate(590,325)"/>
<path d="M0 0 C7.45252989 2.98562151 14.05207562 4.67274678 21.79199219 1.79125977 C22.66082031 1.26145508 23.52964844 0.73165039 24.42480469 0.18579102 C25.30910156 -0.3362793 26.19339844 -0.85834961 27.10449219 -1.39624023 C29.54841028 -2.94735027 29.54841028 -2.94735027 31.68261719 -4.70092773 C33.54980469 -6.00170898 33.54980469 -6.00170898 36.54980469 -6.00170898 C37.12085938 -4.89698242 37.69191406 -3.79225586 38.28027344 -2.65405273 C43.54386179 7.46789282 49.01209791 17.45169071 54.65551758 27.36669922 C58.67606748 34.43378173 62.61376527 41.54149036 66.49975586 48.68334961 C68.83469388 52.95351665 71.22793091 57.1772407 73.71386719 61.36157227 C74.48802979 62.66916504 74.48802979 62.66916504 75.27783203 64.00317383 C76.27169211 65.67331791 77.27426618 67.33831576 78.28662109 68.99731445 C78.72925293 69.74142578 79.17188477 70.48553711 79.62792969 71.25219727 C80.22202637 72.23168335 80.22202637 72.23168335 80.828125 73.23095703 C81.54980469 74.99829102 81.54980469 74.99829102 80.54980469 77.99829102 C79.15795898 79.29760742 79.15795898 79.29760742 77.37402344 80.59985352 C76.7162793 81.08599121 76.05853516 81.57212891 75.38085938 82.07299805 C74.3197998 82.84039307 74.3197998 82.84039307 73.23730469 83.62329102 C71.7775399 84.69603166 70.31790575 85.76895009 68.85839844 86.84204102 C68.13120605 87.37313477 67.40401367 87.90422852 66.65478516 88.45141602 C64.74289295 89.85639734 62.84737182 91.27942116 60.95996094 92.71704102 C59.91710937 93.51110352 58.87425781 94.30516602 57.79980469 95.12329102 C56.87683594 95.82711914 55.95386719 96.53094727 55.00292969 97.25610352 C52.89736801 98.75145464 50.89544653 99.93507953 48.54980469 100.99829102 C47.56753906 100.18038086 47.56753906 100.18038086 46.56542969 99.34594727 C40.80593123 94.58703964 34.96143855 90.02025739 28.96386719 85.56469727 C24.09941074 81.93014966 19.32894602 78.17368343 14.54248047 74.4375 C9.34151144 70.3816137 4.11165706 66.36629036 -1.13769531 62.37329102 C-6.53820305 58.26510091 -11.86344424 54.07963798 -17.13769531 49.81079102 C-22.03836057 45.85376449 -27.01646654 42.04111627 -32.13769531 38.37329102 C-32.71414795 37.95926025 -33.29060059 37.54522949 -33.88452148 37.11865234 C-39.97272509 32.81421898 -43.9790779 31.03737559 -51.45019531 31.99829102 C-58.88677539 34.21666067 -64.65289706 38.83625507 -70.52832031 43.72875977 C-81.17222602 52.4008628 -91.64198004 57.25204308 -105.45019531 55.99829102 C-110.15629486 54.71883999 -115.55689056 53.17750899 -118.45019531 48.99829102 C-118.59163098 46.17445473 -117.96240499 44.60540395 -116.14306641 42.44897461 C-114.34907782 40.64649126 -112.50394542 38.91331949 -110.63769531 37.18579102 C-105.18152241 31.96474745 -100.42156565 26.62897295 -96.01269531 20.49829102 C-87.38525888 8.70885725 -79.2404406 4.29097063 -65.77539062 -1.05395508 C-61.50853101 -2.79313494 -57.36847403 -4.78843291 -53.21191406 -6.77514648 C-35.47820836 -14.65121945 -16.80681392 -6.98286345 0 0 Z " fill="#000000" transform="translate(567.4501953125,567.001708984375)"/>
<path d="M0 0 C3.14731257 1.6564803 5.23306045 4.03298926 7.4375 6.8125 C8.39100147 10.52056128 8.3371078 13.45880126 7 17 C4.31508989 20.64338135 1.17116708 23.78004573 -2 27 C-3.55071731 28.70012197 -5.09262917 30.4083234 -6.625 32.125 C-7.36363281 32.94355469 -8.10226562 33.76210938 -8.86328125 34.60546875 C-11.41837812 37.46885885 -13.91677663 40.37811359 -16.39453125 43.30859375 C-19.52419002 46.60577683 -21.25842072 47.91627331 -25.875 48.4375 C-30.1837043 48.26097953 -32.70779621 46.83282651 -36 44 C-38.29957625 41.16385596 -38.9460686 39.38830606 -39.44921875 35.765625 C-38.83358888 30.60504071 -36.55524458 28.58973948 -32.9375 25.0625 C-31.7336595 23.83142843 -30.53052815 22.59966298 -29.328125 21.3671875 C-28.74869141 20.78420898 -28.16925781 20.20123047 -27.57226562 19.60058594 C-25.69904791 17.69362704 -23.92960317 15.71452659 -22.1875 13.6875 C-21.671875 13.09195313 -21.15625 12.49640625 -20.625 11.8828125 C-20.08875 11.26148438 -19.5525 10.64015625 -19 10 C-17.56662902 8.35056942 -16.12902515 6.704809 -14.6875 5.0625 C-13.70330078 3.93521484 -13.70330078 3.93521484 -12.69921875 2.78515625 C-9.17087349 -0.92163406 -4.83797819 -0.73179502 0 0 Z " fill="#020202" transform="translate(460,667)"/>
<path d="M0 0 C3.03522895 1.63435405 5.28352297 3.055553 7.375 5.8125 C8.30460241 9.06610843 8.34882528 11.62802225 8 15 C5.40327851 19.38756389 2.30630496 22.99203242 -1.1875 26.6875 C-5.70917742 31.49771435 -9.83727912 36.46071003 -13.83203125 41.72265625 C-16.35053424 44.36821885 -18.61278784 45.66318027 -22 47 C-27.25549228 46.0347055 -31.14870211 43.44034722 -34.375 39.1875 C-35.31950803 35.8817219 -34.7024023 33.34173214 -34 30 C-32.390625 27.40234375 -32.390625 27.40234375 -30.25 24.9375 C-29.44691406 24.00679687 -28.64382813 23.07609375 -27.81640625 22.1171875 C-26.88088759 21.0751678 -25.94184158 20.03630819 -25 19 C-24.46101074 18.40606445 -23.92202148 17.81212891 -23.36669922 17.20019531 C-7.06178561 -0.67901785 -7.06178561 -0.67901785 0 0 Z " fill="#020202" transform="translate(481,689)"/>
<path d="M0 0 C1.17546556 0.65102708 2.34561699 1.31228246 3.5 2 C2.38333826 5.34998521 1.75305075 5.79340222 -1.0625 7.6875 C-1.70316406 8.12449219 -2.34382813 8.56148437 -3.00390625 9.01171875 C-3.74447266 9.50091797 -3.74447266 9.50091797 -4.5 10 C-4.995 9.505 -4.995 9.505 -5.5 9 C-13.08297332 8.16042463 -18.60801964 10.79345696 -25.4375 13.875 C-39.6769649 20.21746908 -52.3917566 23.92487934 -67.65234375 18.35546875 C-72.13876746 16.21995568 -75.81968659 13.30856458 -79.5 10 C-78.6875 7.0625 -78.6875 7.0625 -77.5 4 C-74.5 3 -74.5 3 -71.6875 4.1796875 C-70.635625 4.73914063 -69.58375 5.29859375 -68.5 5.875 C-59.52138276 10.60637918 -50.68228382 11.58166709 -40.8203125 9.05859375 C-37.32250649 7.81605464 -33.91302431 6.45876068 -30.5 5 C-29.40042969 4.54625 -28.30085938 4.0925 -27.16796875 3.625 C-25.1793185 2.80109558 -23.19540049 1.96557296 -21.21875 1.11328125 C-13.70962639 -1.9615754 -7.49669931 -3.7351046 0 0 Z " fill="#050505" transform="translate(497.5,553)"/>
<path d="M0 0 C4.17114113 2.54903069 5.69709868 4.09129604 7.25 8.75 C7.55712014 15.59621982 2.62625971 20.13967592 -1.60546875 24.98046875 C-8.77696287 32.70657496 -8.77696287 32.70657496 -13.6796875 33.8828125 C-17.61191857 34.02159713 -18.96952224 33.45714413 -22 31 C-25.37241963 27.53390205 -26.89821241 24.88580439 -27 20 C-24.85176461 15.70352923 -21.76367017 12.34643697 -18.5 8.875 C-18.01402344 8.35035156 -17.52804687 7.82570313 -17.02734375 7.28515625 C-15.69309355 5.84911039 -14.34700307 4.4240906 -13 3 C-12.18015625 2.10667969 -12.18015625 2.10667969 -11.34375 1.1953125 C-7.84982376 -1.91265677 -4.20047307 -0.99672242 0 0 Z " fill="#020202" transform="translate(427,658)"/>
<path d="M0 0 C4.05416901 3.43723025 5.86256294 5.37824274 6.3125 10.6875 C6.1342931 18.94441989 0.58742311 23.7266119 -4.9765625 29.1796875 C-8.40544417 32.26435711 -11.11314557 32.46095797 -15.60546875 32.41015625 C-19.83958252 31.68490022 -22.40694618 29.31545885 -25 26 C-26.3125 23.125 -26.3125 23.125 -26 20 C-24.41219281 16.97430733 -22.25846821 14.54920386 -20 12 C-19.55914062 11.50032715 -19.11828125 11.0006543 -18.6640625 10.48583984 C-7.74024562 -1.83666845 -7.74024562 -1.83666845 0 0 Z " fill="#010101" transform="translate(499,716)"/>
<path d="M0 0 C3.97943265 0.60351585 6.46143384 2.59602361 9.625 5 C10.14626465 5.39574219 10.6675293 5.79148437 11.20458984 6.19921875 C15.69188474 9.65496726 19.895937 13.38844614 24.0390625 17.25 C25.88625493 19.05224408 25.88625493 19.05224408 28 20 C26.55140574 23.38005327 24.62669829 25.4587228 22 28 C21.11699219 27.154375 20.23398437 26.30875 19.32421875 25.4375 C12.21896149 18.69893364 5.13173049 12.49306692 -3 7 C-2.01 4.69 -1.02 2.38 0 0 Z " fill="#060606" transform="translate(376,638)"/>
<path d="M0 0 C-0.33 0.99 -0.66 1.98 -1 3 C-3.64 2.67 -6.28 2.34 -9 2 C-5.5647952 -0.29013653 -4.014669 -0.17842973 0 0 Z " fill="#000000" transform="translate(527,965)"/>
<path d="M0 0 C1.98 0 3.96 0 6 0 C5.67 0.99 5.34 1.98 5 3 C4.34 3 3.68 3 3 3 C3 2.34 3 1.68 3 1 C2.01 0.67 1.02 0.34 0 0 Z " fill="#000000" transform="translate(489,965)"/>
<path d="M0 0 C0.99 0.495 0.99 0.495 2 1 C2 2.98 2 4.96 2 7 C0 4 0 4 0 0 Z " fill="#000000" transform="translate(48,546)"/>
<path d="M0 0 C0.33 0 0.66 0 1 0 C1 2.64 1 5.28 1 8 C0.67 8 0.34 8 0 8 C0 5.36 0 2.72 0 0 Z " fill="#000000" transform="translate(48,463)"/>
<path d="M0 0 C1.98 0 3.96 0 6 0 C6 0.33 6 0.66 6 1 C4.02 1 2.04 1 0 1 C0 0.67 0 0.34 0 0 Z " fill="#000000" transform="translate(465,963)"/>
<path d="M0 0 C1.65 0 3.3 0 5 0 C4.67 0.66 4.34 1.32 4 2 C2.68 1.34 1.36 0.68 0 0 Z " fill="#000000" transform="translate(563,962)"/>
<path d="M0 0 C1.65 0 3.3 0 5 0 C5 0.33 5 0.66 5 1 C3.35 1 1.7 1 0 1 C0 0.67 0 0.34 0 0 Z " fill="#000000" transform="translate(535,965)"/>
<path d="M0 0 C1.32 0 2.64 0 4 0 C3.67 0.66 3.34 1.32 3 2 C2.01 1.34 1.02 0.68 0 0 Z " fill="#000000" transform="translate(529,965)"/>
<path d="M0 0 C0.33 0.66 0.66 1.32 1 2 C0.34 2.66 -0.32 3.32 -1 4 C-0.67 2.68 -0.34 1.36 0 0 Z " fill="#000000" transform="translate(49,458)"/>
<path d="M0 0 C0.33 1.32 0.66 2.64 1 4 C0.34 3.67 -0.32 3.34 -1 3 C-0.67 2.01 -0.34 1.02 0 0 Z " fill="#000000" transform="translate(51,439)"/>
<path d="M0 0 C0.99 0.33 1.98 0.66 3 1 C2.01 1 1.02 1 0 1 C0 0.67 0 0.34 0 0 Z " fill="#000000" transform="translate(515,966)"/>
<path d="M0 0 C4 1 4 1 4 1 Z " fill="#000000" transform="translate(557,963)"/>
<path d="M0 0 C1 4 1 4 1 4 Z " fill="#000000" transform="translate(56,593)"/>
<path d="M0 0 C1 4 1 4 1 4 Z " fill="#000000" transform="translate(51,564)"/>
<path d="M0 0 C4 1 4 1 4 1 Z " fill="#000000" transform="translate(457,32)"/>
<path d="M0 0 C0.66 0.66 1.32 1.32 2 2 C1.34 2 0.68 2 0 2 C0 1.34 0 0.68 0 0 Z " fill="#000000" transform="translate(507,965)"/>
<path d="M0 0 C3 1 3 1 3 1 Z " fill="#000000" transform="translate(496,965)"/>
<path d="M0 0 C3 1 3 1 3 1 Z " fill="#000000" transform="translate(549,964)"/>
<path d="M0 0 C0.66 0 1.32 0 2 0 C1.67 0.66 1.34 1.32 1 2 C0.67 1.34 0.34 0.68 0 0 Z " fill="#000000" transform="translate(546,964)"/>
<path d="M0 0 C3 1 3 1 3 1 Z " fill="#000000" transform="translate(477,964)"/>
<path d="M0 0 C3 1 3 1 3 1 Z " fill="#000000" transform="translate(459,962)"/>
<path d="M0 0 C0.66 0 1.32 0 2 0 C1.67 0.66 1.34 1.32 1 2 C0.67 1.34 0.34 0.68 0 0 Z " fill="#000000" transform="translate(602,956)"/>
<path d="M0 0 C3 1 3 1 3 1 Z " fill="#000000" transform="translate(385,947)"/>
<path d="" fill="#000000" transform="translate(0,0)"/>
<path d="M0 0 C0.33 0.66 0.66 1.32 1 2 C0.34 1.67 -0.32 1.34 -1 1 C-0.67 0.67 -0.34 0.34 0 0 Z " fill="#000000" transform="translate(82,675)"/>
<path d="" fill="#000000" transform="translate(0,0)"/>
<path d="" fill="#000000" transform="translate(0,0)"/>
<path d="" fill="#000000" transform="translate(0,0)"/>
<path d="M0 0 C0.33 0.66 0.66 1.32 1 2 C0.34 1.67 -0.32 1.34 -1 1 C-0.67 0.67 -0.34 0.34 0 0 Z " fill="#000000" transform="translate(57,404)"/>
<path d="" fill="#000000" transform="translate(0,0)"/>
<path d="M0 0 C0.33 0.66 0.66 1.32 1 2 C0.34 1.67 -0.32 1.34 -1 1 C-0.67 0.67 -0.34 0.34 0 0 Z " fill="#000000" transform="translate(66,370)"/>
<path d="M0 0 C0.66 0.66 1.32 1.32 2 2 C1.34 2 0.68 2 0 2 C0 1.34 0 0.68 0 0 Z " fill="#000000" transform="translate(81,324)"/>
<path d="M0 0 C3 1 3 1 3 1 Z " fill="#000000" transform="translate(243,121)"/>
<path d="M0 0 C0.66 0 1.32 0 2 0 C1.67 0.66 1.34 1.32 1 2 C0.67 1.34 0.34 0.68 0 0 Z " fill="#000000" transform="translate(768,112)"/>
<path d="M0 0 C0.33 0.66 0.66 1.32 1 2 C0.34 1.67 -0.32 1.34 -1 1 C-0.67 0.67 -0.34 0.34 0 0 Z " fill="#000000" transform="translate(338,66)"/>
<path d="M0 0 C3 1 3 1 3 1 Z " fill="#000000" transform="translate(343,65)"/>
<path d="M0 0 C3 1 3 1 3 1 Z " fill="#000000" transform="translate(367,56)"/>
<path d="M0 0 C0.66 0.66 1.32 1.32 2 2 C1.34 2 0.68 2 0 2 C0 1.34 0 0.68 0 0 Z " fill="#000000" transform="translate(388,48)"/>
<path d="M0 0 C3 1 3 1 3 1 Z " fill="#000000" transform="translate(392,48)"/>
<path d="M0 0 C3 1 3 1 3 1 Z " fill="#000000" transform="translate(458,34)"/>
<path d="M0 0 C3 1 3 1 3 1 Z " fill="#000000" transform="translate(553,32)"/>
<path d="M0 0 C2 1 2 1 2 1 Z " fill="#000000" transform="translate(540,967)"/>
<path d="" fill="#000000" transform="translate(0,0)"/>
<path d="M0 0 C2 1 2 1 2 1 Z " fill="#000000" transform="translate(482,964)"/>
<path d="M0 0 C2 1 2 1 2 1 Z " fill="#000000" transform="translate(585,959)"/>
<path d="M0 0 C2 1 2 1 2 1 Z " fill="#000000" transform="translate(437,959)"/>
<path d="M0 0 C2 1 2 1 2 1 Z " fill="#000000" transform="translate(593,958)"/>
<path d="M0 0 C2 1 2 1 2 1 Z " fill="#000000" transform="translate(606,955)"/>
<path d="M0 0 C2 1 2 1 2 1 Z " fill="#000000" transform="translate(418,955)"/>
<path d="M0 0 C2 1 2 1 2 1 Z " fill="#000000" transform="translate(400,951)"/>
<path d="M0 0 C2 1 2 1 2 1 Z " fill="#000000" transform="translate(627,950)"/>
<path d="M0 0 C2 1 2 1 2 1 Z " fill="#000000" transform="translate(632,949)"/>
<path d="M0 0 C2 1 2 1 2 1 Z " fill="#000000" transform="translate(373,943)"/>
<path d="M0 0 C2 1 2 1 2 1 Z " fill="#000000" transform="translate(659,940)"/>
<path d="M0 0 C2 1 2 1 2 1 Z " fill="#000000" transform="translate(675,934)"/>
<path d="" fill="#000000" transform="translate(0,0)"/>
<path d="" fill="#000000" transform="translate(0,0)"/>
<path d="" fill="#000000" transform="translate(0,0)"/>
<path d="" fill="#000000" transform="translate(0,0)"/>
<path d="" fill="#000000" transform="translate(0,0)"/>
<path d="" fill="#000000" transform="translate(0,0)"/>
<path d="M0 0 C2 1 2 1 2 1 Z " fill="#000000" transform="translate(964,611)"/>
<path d="" fill="#000000" transform="translate(0,0)"/>
<path d="" fill="#000000" transform="translate(0,0)"/>
<path d="" fill="#000000" transform="translate(0,0)"/>
<path d="" fill="#000000" transform="translate(0,0)"/>
<path d="" fill="#000000" transform="translate(0,0)"/>
<path d="" fill="#000000" transform="translate(0,0)"/>
<path d="" fill="#000000" transform="translate(0,0)"/>
<path d="" fill="#000000" transform="translate(0,0)"/>
<path d="" fill="#000000" transform="translate(0,0)"/>
<path d="M0 0 C2 1 2 1 2 1 Z " fill="#000000" transform="translate(201,152)"/>
<path d="" fill="#000000" transform="translate(0,0)"/>
<path d="M0 0 C2 1 2 1 2 1 Z " fill="#000000" transform="translate(233,128)"/>
<path d="" fill="#000000" transform="translate(0,0)"/>
<path d="M0 0 C2 1 2 1 2 1 Z " fill="#000000" transform="translate(779,120)"/>
<path d="M0 0 C2 1 2 1 2 1 Z " fill="#000000" transform="translate(276,97)"/>
<path d="M0 0 C2 1 2 1 2 1 Z " fill="#000000" transform="translate(296,88)"/>
<path d="M0 0 C2 1 2 1 2 1 Z " fill="#000000" transform="translate(324,72)"/>
<path d="" fill="#000000" transform="translate(0,0)"/>
<path d="M0 0 C2 1 2 1 2 1 Z " fill="#000000" transform="translate(680,64)"/>
<path d="M0 0 C2 1 2 1 2 1 Z " fill="#000000" transform="translate(625,45)"/>
<path d="M0 0 C2 1 2 1 2 1 Z " fill="#000000" transform="translate(618,43)"/>
<path d="M0 0 C2 1 2 1 2 1 Z " fill="#000000" transform="translate(424,40)"/>
<path d="M0 0 C2 1 2 1 2 1 Z " fill="#000000" transform="translate(563,33)"/>
<path d="M0 0 C2 1 2 1 2 1 Z " fill="#000000" transform="translate(559,33)"/>
<path d="M0 0 C2 1 2 1 2 1 Z " fill="#000000" transform="translate(468,33)"/>
<path d="M0 0 C2 1 2 1 2 1 Z " fill="#000000" transform="translate(480,32)"/>
<path d="M0 0 C2 1 2 1 2 1 Z " fill="#000000" transform="translate(470,32)"/>
<path d="" fill="#000000" transform="translate(0,0)"/>
<path d="" fill="#000000" transform="translate(0,0)"/>
<path d="" fill="#000000" transform="translate(0,0)"/>
<path d="" fill="#000000" transform="translate(0,0)"/>
<path d="" fill="#000000" transform="translate(0,0)"/>
<path d="" fill="#000000" transform="translate(0,0)"/>
<path d="" fill="#000000" transform="translate(0,0)"/>
<path d="" fill="#000000" transform="translate(0,0)"/>
<path d="" fill="#000000" transform="translate(0,0)"/>
<path d="" fill="#000000" transform="translate(0,0)"/>
<path d="" fill="#000000" transform="translate(0,0)"/>
<path d="" fill="#000000" transform="translate(0,0)"/>
<path d="" fill="#000000" transform="translate(0,0)"/>
<path d="" fill="#000000" transform="translate(0,0)"/>
<path d="" fill="#000000" transform="translate(0,0)"/>
<path d="" fill="#000000" transform="translate(0,0)"/>
<path d="" fill="#000000" transform="translate(0,0)"/>
<path d="" fill="#000000" transform="translate(0,0)"/>
<path d="" fill="#000000" transform="translate(0,0)"/>
<path d="" fill="#000000" transform="translate(0,0)"/>
<path d="" fill="#000000" transform="translate(0,0)"/>
<path d="" fill="#000000" transform="translate(0,0)"/>
<path d="" fill="#000000" transform="translate(0,0)"/>
<path d="" fill="#000000" transform="translate(0,0)"/>
<path d="" fill="#000000" transform="translate(0,0)"/>
<path d="" fill="#000000" transform="translate(0,0)"/>
<path d="" fill="#000000" transform="translate(0,0)"/>
<path d="" fill="#000000" transform="translate(0,0)"/>
<path d="" fill="#000000" transform="translate(0,0)"/>
<path d="" fill="#000000" transform="translate(0,0)"/>
<path d="" fill="#000000" transform="translate(0,0)"/>
<path d="" fill="#000000" transform="translate(0,0)"/>
<path d="" fill="#000000" transform="translate(0,0)"/>
<path d="" fill="#000000" transform="translate(0,0)"/>
<path d="" fill="#000000" transform="translate(0,0)"/>
<path d="" fill="#000000" transform="translate(0,0)"/>
<path d="" fill="#000000" transform="translate(0,0)"/>
<path d="" fill="#000000" transform="translate(0,0)"/>
<path d="" fill="#000000" transform="translate(0,0)"/>
<path d="" fill="#000000" transform="translate(0,0)"/>
<path d="" fill="#000000" transform="translate(0,0)"/>
<path d="" fill="#000000" transform="translate(0,0)"/>
<path d="" fill="#000000" transform="translate(0,0)"/>
<path d="" fill="#000000" transform="translate(0,0)"/>
<path d="" fill="#000000" transform="translate(0,0)"/>
<path d="" fill="#000000" transform="translate(0,0)"/>
<path d="" fill="#000000" transform="translate(0,0)"/>
<path d="" fill="#000000" transform="translate(0,0)"/>
<path d="" fill="#000000" transform="translate(0,0)"/>
<path d="" fill="#000000" transform="translate(0,0)"/>
<path d="" fill="#000000" transform="translate(0,0)"/>
<path d="" fill="#000000" transform="translate(0,0)"/>
<path d="" fill="#000000" transform="translate(0,0)"/>
<path d="" fill="#000000" transform="translate(0,0)"/>
<path d="" fill="#000000" transform="translate(0,0)"/>
<path d="" fill="#000000" transform="translate(0,0)"/>
<path d="" fill="#000000" transform="translate(0,0)"/>
<path d="" fill="#000000" transform="translate(0,0)"/>
<path d="" fill="#000000" transform="translate(0,0)"/>
<path d="" fill="#000000" transform="translate(0,0)"/>
<path d="" fill="#000000" transform="translate(0,0)"/>
<path d="" fill="#000000" transform="translate(0,0)"/>
<path d="" fill="#000000" transform="translate(0,0)"/>
<path d="" fill="#000000" transform="translate(0,0)"/>
<path d="" fill="#000000" transform="translate(0,0)"/>
<path d="" fill="#000000" transform="translate(0,0)"/>
<path d="" fill="#000000" transform="translate(0,0)"/>
<path d="" fill="#000000" transform="translate(0,0)"/>
<path d="" fill="#000000" transform="translate(0,0)"/>
<path d="" fill="#000000" transform="translate(0,0)"/>
<path d="" fill="#000000" transform="translate(0,0)"/>
<path d="" fill="#000000" transform="translate(0,0)"/>
<path d="" fill="#000000" transform="translate(0,0)"/>
<path d="" fill="#000000" transform="translate(0,0)"/>
<path d="" fill="#000000" transform="translate(0,0)"/>
<path d="" fill="#000000" transform="translate(0,0)"/>
<path d="" fill="#000000" transform="translate(0,0)"/>
<path d="" fill="#000000" transform="translate(0,0)"/>
<path d="" fill="#000000" transform="translate(0,0)"/>
<path d="" fill="#000000" transform="translate(0,0)"/>
<path d="" fill="#000000" transform="translate(0,0)"/>
<path d="" fill="#000000" transform="translate(0,0)"/>
<path d="" fill="#000000" transform="translate(0,0)"/>
<path d="" fill="#000000" transform="translate(0,0)"/>
<path d="" fill="#000000" transform="translate(0,0)"/>
<path d="" fill="#000000" transform="translate(0,0)"/>
<path d="" fill="#000000" transform="translate(0,0)"/>
<path d="" fill="#000000" transform="translate(0,0)"/>
<path d="" fill="#000000" transform="translate(0,0)"/>
<path d="" fill="#000000" transform="translate(0,0)"/>
<path d="" fill="#000000" transform="translate(0,0)"/>
<path d="" fill="#000000" transform="translate(0,0)"/>
<path d="" fill="#000000" transform="translate(0,0)"/>
<path d="" fill="#000000" transform="translate(0,0)"/>
<path d="" fill="#000000" transform="translate(0,0)"/>
<path d="" fill="#000000" transform="translate(0,0)"/>
<path d="" fill="#000000" transform="translate(0,0)"/>
<path d="" fill="#000000" transform="translate(0,0)"/>
<path d="" fill="#000000" transform="translate(0,0)"/>
<path d="" fill="#000000" transform="translate(0,0)"/>
<path d="" fill="#000000" transform="translate(0,0)"/>
<path d="" fill="#000000" transform="translate(0,0)"/>
<path d="" fill="#000000" transform="translate(0,0)"/>
<path d="" fill="#000000" transform="translate(0,0)"/>
<path d="" fill="#000000" transform="translate(0,0)"/>
<path d="" fill="#000000" transform="translate(0,0)"/>
<path d="" fill="#000000" transform="translate(0,0)"/>
<path d="" fill="#000000" transform="translate(0,0)"/>
<path d="" fill="#000000" transform="translate(0,0)"/>
<path d="" fill="#000000" transform="translate(0,0)"/>
<path d="" fill="#000000" transform="translate(0,0)"/>
<path d="" fill="#000000" transform="translate(0,0)"/>
<path d="" fill="#000000" transform="translate(0,0)"/>
<path d="" fill="#000000" transform="translate(0,0)"/>
<path d="" fill="#000000" transform="translate(0,0)"/>
<path d="" fill="#000000" transform="translate(0,0)"/>
<path d="" fill="#000000" transform="translate(0,0)"/>
<path d="" fill="#000000" transform="translate(0,0)"/>
<path d="" fill="#000000" transform="translate(0,0)"/>
<path d="" fill="#000000" transform="translate(0,0)"/>
<path d="" fill="#000000" transform="translate(0,0)"/>
<path d="" fill="#000000" transform="translate(0,0)"/>
<path d="" fill="#000000" transform="translate(0,0)"/>
<path d="" fill="#000000" transform="translate(0,0)"/>
<path d="" fill="#000000" transform="translate(0,0)"/>
<path d="" fill="#000000" transform="translate(0,0)"/>
<path d="" fill="#000000" transform="translate(0,0)"/>
<path d="" fill="#000000" transform="translate(0,0)"/>
<path d="" fill="#000000" transform="translate(0,0)"/>
<path d="" fill="#000000" transform="translate(0,0)"/>
<path d="" fill="#000000" transform="translate(0,0)"/>
<path d="" fill="#000000" transform="translate(0,0)"/>
<path d="" fill="#000000" transform="translate(0,0)"/>
<path d="" fill="#000000" transform="translate(0,0)"/>
<path d="" fill="#000000" transform="translate(0,0)"/>
<path d="" fill="#000000" transform="translate(0,0)"/>
<path d="" fill="#000000" transform="translate(0,0)"/>
<path d="" fill="#000000" transform="translate(0,0)"/>
<path d="" fill="#000000" transform="translate(0,0)"/>
<path d="" fill="#000000" transform="translate(0,0)"/>
<path d="" fill="#000000" transform="translate(0,0)"/>
<path d="" fill="#000000" transform="translate(0,0)"/>
<path d="" fill="#000000" transform="translate(0,0)"/>
<path d="" fill="#000000" transform="translate(0,0)"/>
<path d="" fill="#000000" transform="translate(0,0)"/>
<path d="" fill="#000000" transform="translate(0,0)"/>
<path d="" fill="#000000" transform="translate(0,0)"/>
<path d="" fill="#000000" transform="translate(0,0)"/>
<path d="" fill="#000000" transform="translate(0,0)"/>
<path d="" fill="#000000" transform="translate(0,0)"/>
<path d="" fill="#000000" transform="translate(0,0)"/>
<path d="" fill="#000000" transform="translate(0,0)"/>
<path d="" fill="#000000" transform="translate(0,0)"/>
<path d="" fill="#000000" transform="translate(0,0)"/>
<path d="" fill="#000000" transform="translate(0,0)"/>
<path d="" fill="#000000" transform="translate(0,0)"/>
<path d="" fill="#000000" transform="translate(0,0)"/>
<path d="" fill="#000000" transform="translate(0,0)"/>
<path d="" fill="#000000" transform="translate(0,0)"/>
<path d="" fill="#000000" transform="translate(0,0)"/>
<path d="" fill="#000000" transform="translate(0,0)"/>
<path d="" fill="#000000" transform="translate(0,0)"/>
<path d="" fill="#000000" transform="translate(0,0)"/>
<path d="" fill="#000000" transform="translate(0,0)"/>
<path d="" fill="#000000" transform="translate(0,0)"/>
<path d="" fill="#000000" transform="translate(0,0)"/>
<path d="" fill="#000000" transform="translate(0,0)"/>
<path d="" fill="#000000" transform="translate(0,0)"/>
<path d="" fill="#000000" transform="translate(0,0)"/>
<path d="" fill="#000000" transform="translate(0,0)"/>
<path d="" fill="#000000" transform="translate(0,0)"/>
<path d="" fill="#000000" transform="translate(0,0)"/>
<path d="" fill="#000000" transform="translate(0,0)"/>
<path d="" fill="#000000" transform="translate(0,0)"/>
<path d="" fill="#000000" transform="translate(0,0)"/>
<path d="" fill="#000000" transform="translate(0,0)"/>
<path d="" fill="#000000" transform="translate(0,0)"/>
<path d="" fill="#000000" transform="translate(0,0)"/>
<path d="" fill="#000000" transform="translate(0,0)"/>
<path d="" fill="#000000" transform="translate(0,0)"/>
<path d="" fill="#000000" transform="translate(0,0)"/>
<path d="" fill="#000000" transform="translate(0,0)"/>
<path d="" fill="#000000" transform="translate(0,0)"/>
<path d="" fill="#000000" transform="translate(0,0)"/>
<path d="" fill="#000000" transform="translate(0,0)"/>
<path d="" fill="#000000" transform="translate(0,0)"/>
<path d="" fill="#000000" transform="translate(0,0)"/>
<path d="" fill="#000000" transform="translate(0,0)"/>
<path d="" fill="#000000" transform="translate(0,0)"/>
<path d="" fill="#000000" transform="translate(0,0)"/>
<path d="" fill="#000000" transform="translate(0,0)"/>
<path d="" fill="#000000" transform="translate(0,0)"/>
<path d="" fill="#000000" transform="translate(0,0)"/>
<path d="" fill="#000000" transform="translate(0,0)"/>
<path d="" fill="#000000" transform="translate(0,0)"/>
<path d="" fill="#000000" transform="translate(0,0)"/>
<path d="" fill="#000000" transform="translate(0,0)"/>
<path d="" fill="#000000" transform="translate(0,0)"/>
<path d="" fill="#000000" transform="translate(0,0)"/>
<path d="" fill="#000000" transform="translate(0,0)"/>
<path d="" fill="#000000" transform="translate(0,0)"/>
<path d="" fill="#000000" transform="translate(0,0)"/>
<path d="" fill="#000000" transform="translate(0,0)"/>
<path d="" fill="#000000" transform="translate(0,0)"/>
<path d="" fill="#000000" transform="translate(0,0)"/>
<path d="" fill="#000000" transform="translate(0,0)"/>
<path d="" fill="#000000" transform="translate(0,0)"/>
<path d="" fill="#000000" transform="translate(0,0)"/>
<path d="" fill="#000000" transform="translate(0,0)"/>
<path d="" fill="#000000" transform="translate(0,0)"/>
<path d="" fill="#000000" transform="translate(0,0)"/>
<path d="" fill="#000000" transform="translate(0,0)"/>
<path d="" fill="#000000" transform="translate(0,0)"/>
<path d="" fill="#000000" transform="translate(0,0)"/>
<path d="" fill="#000000" transform="translate(0,0)"/>
<path d="" fill="#000000" transform="translate(0,0)"/>
<path d="" fill="#000000" transform="translate(0,0)"/>
<path d="" fill="#000000" transform="translate(0,0)"/>
<path d="" fill="#000000" transform="translate(0,0)"/>
<path d="" fill="#000000" transform="translate(0,0)"/>
<path d="" fill="#000000" transform="translate(0,0)"/>
<path d="" fill="#000000" transform="translate(0,0)"/>
<path d="" fill="#000000" transform="translate(0,0)"/>
</svg>
